<?xml version="1.0" standalone="no"?>
<!DOCTYPE svg PUBLIC "-//W3C//DTD SVG 20010904//EN"
 "http://www.w3.org/TR/2001/REC-SVG-20010904/DTD/svg10.dtd">
<svg version="1.0" xmlns="http://www.w3.org/2000/svg"
 width="1085.000000pt" height="1085.000000pt" viewBox="0 0 1085.000000 1085.000000"
 preserveAspectRatio="xMidYMid meet">
<metadata>
Created by potrace 1.14, written by Peter Selinger 2001-2017
</metadata>
<g transform="translate(0.000000,1085.000000) scale(0.100000,-0.100000)"
fill="#CBA415" stroke="none">
<path d="M6731 10625 c-324 -71 -549 -271 -631 -560 -27 -94 -35 -176 -34
-326 l2 -126 -32 0 c-38 0 -183 -13 -211 -18 -11 -3 -36 -7 -55 -9 -138 -20
-337 -83 -332 -106 2 -8 53 -114 115 -237 78 -158 115 -222 125 -218 26 10
207 44 267 50 137 14 204 16 489 16 l298 0 -5 22 c-2 12 -28 112 -56 222 -71
276 -76 305 -75 460 0 87 3 108 26 158 49 104 145 158 283 158 168 0 275 -95
275 -245 0 -99 -41 -202 -249 -630 -51 -103 -91 -190 -89 -191 4 -5 43 -11
113 -21 28 -3 57 -8 66 -9 9 -2 40 -6 70 -10 168 -20 306 -61 414 -125 28 -16
64 -37 80 -46 113 -63 339 -282 463 -449 97 -131 184 -282 247 -430 44 -104
126 -368 139 -446 3 -20 7 -42 10 -50 3 -8 8 -34 11 -59 3 -25 8 -54 9 -65 2
-11 7 -47 11 -80 4 -33 9 -67 10 -76 20 -106 27 -742 11 -1014 -4 -77 -9 -171
-11 -210 -3 -38 -6 -106 -9 -150 -16 -245 -20 -393 -20 -695 0 -336 8 -555 28
-770 14 -143 17 -176 21 -210 2 -19 7 -60 10 -90 5 -48 26 -199 42 -300 5 -33
55 -319 68 -385 3 -16 17 -82 31 -145 14 -63 28 -124 30 -136 15 -81 108 -419
166 -607 16 -54 28 -100 26 -102 -2 -2 -44 35 -93 83 -50 48 -124 117 -165
152 -41 36 -77 68 -80 71 -12 14 -203 162 -288 223 -362 261 -783 485 -1257
668 -113 44 -361 131 -405 143 -8 2 -93 27 -187 54 -95 28 -183 53 -195 55
-13 3 -43 10 -68 17 -67 16 -63 15 -230 52 -85 19 -171 37 -190 41 -19 3 -46
8 -60 11 -22 4 -78 14 -170 31 -32 5 -294 43 -340 49 -19 2 -60 7 -90 10 -30
3 -72 8 -92 11 -20 3 -61 6 -90 9 -59 4 -179 13 -248 20 -277 25 -1197 26
-1500 0 -25 -2 -92 -6 -150 -10 -58 -3 -121 -8 -140 -10 -19 -2 -72 -6 -118
-9 -83 -7 -140 -12 -217 -21 -22 -3 -69 -7 -105 -10 -36 -3 -81 -7 -100 -10
-19 -2 -64 -7 -100 -11 -36 -3 -68 -8 -73 -11 -20 -12 1 19 86 125 369 462
670 930 928 1445 l79 158 -147 70 c-82 39 -177 84 -213 101 -36 16 -76 36 -91
43 l-26 14 -84 -166 c-255 -505 -534 -931 -929 -1423 -218 -272 -299 -418
-339 -616 -28 -139 -19 -272 28 -411 57 -165 164 -316 357 -503 99 -96 139
-133 244 -225 118 -104 356 -283 535 -402 288 -191 669 -395 945 -505 41 -16
89 -36 105 -43 54 -25 340 -123 462 -159 117 -35 410 -110 468 -119 17 -3 55
-10 85 -17 61 -12 100 -18 145 -24 17 -2 46 -7 65 -10 70 -12 96 -16 150 -22
30 -3 66 -7 79 -9 14 -3 68 -7 120 -10 53 -4 106 -8 119 -10 15 -3 22 2 23 13
1 9 3 28 4 42 5 52 17 308 19 389 l1 84 -50 3 c-62 3 -178 13 -226 20 -20 2
-52 7 -70 9 -117 15 -187 27 -304 50 -38 8 -83 17 -100 19 -67 12 -358 90
-475 128 -347 113 -775 302 -1002 445 -21 13 -40 23 -42 23 -5 0 -104 63 -236
149 -53 34 -209 144 -240 168 -300 234 -566 483 -630 590 l-19 32 27 5 c15 3
45 8 67 10 22 3 58 7 80 10 22 3 63 7 90 10 111 12 152 17 190 21 22 3 67 8
100 11 33 3 78 7 100 9 22 2 76 6 120 10 44 3 96 8 115 10 60 7 242 18 495 31
306 16 1079 10 1285 -10 14 -2 70 -6 125 -11 55 -4 107 -9 115 -10 8 -2 51 -6
95 -10 44 -4 87 -9 95 -10 31 -5 97 -14 145 -20 28 -3 61 -8 75 -10 163 -27
297 -50 400 -72 69 -14 143 -29 165 -33 179 -37 745 -198 768 -220 11 -9 11
-860 0 -869 -4 -4 -30 -16 -58 -26 -222 -80 -430 -260 -548 -473 -52 -95 -61
-120 -99 -257 -25 -93 -30 -129 -30 -235 -1 -69 2 -141 5 -160 19 -108 29
-144 56 -219 185 -507 723 -793 1245 -660 297 75 541 270 680 543 85 165 116
309 112 506 -5 175 -42 318 -123 471 -129 242 -377 439 -645 514 l-58 16 0
315 c0 206 3 314 10 314 17 0 225 -107 385 -198 242 -137 451 -282 670 -463
106 -88 425 -402 425 -419 0 -11 -12 -12 -152 -14 -47 0 -90 -4 -94 -9 -4 -4
-9 -44 -10 -90 -14 -448 -15 -427 9 -428 12 -1 60 -1 107 -1 406 0 671 106
835 337 92 129 128 252 129 440 1 196 -11 261 -114 605 -62 207 -148 541 -174
675 -3 11 -14 65 -25 120 -11 55 -25 127 -31 160 -5 33 -12 69 -14 80 -2 11
-7 45 -12 75 -4 30 -8 57 -9 60 -1 7 -15 99 -20 130 -2 14 -6 52 -10 85 -4 33
-8 74 -11 90 -6 46 -14 122 -20 205 -3 41 -7 91 -9 110 -13 111 -20 354 -20
630 0 333 7 523 30 865 25 383 26 1073 1 1225 -2 14 -7 52 -10 85 -3 33 -8 69
-10 80 -2 11 -6 41 -10 66 -34 235 -112 521 -198 728 -137 329 -315 591 -577
851 -175 174 -337 292 -525 383 -61 29 -77 41 -73 55 3 9 19 56 36 104 105
302 73 573 -94 796 -100 133 -227 217 -415 274 -85 26 -315 33 -409 13z m339
-8865 c205 -60 354 -250 368 -467 9 -157 -42 -289 -157 -403 -106 -104 -217
-150 -369 -151 -238 -1 -452 173 -508 413 -24 102 -5 242 48 345 116 229 368
336 618 263z"/>
<path d="M3205 10349 c-69 -8 -182 -25 -220 -33 -85 -18 -132 -31 -210 -57
-49 -17 -104 -37 -122 -45 -17 -8 -34 -14 -39 -14 -15 0 -210 -103 -288 -153
-527 -335 -871 -901 -923 -1517 -34 -414 45 -771 259 -1170 53 -100 187 -277
292 -387 242 -254 634 -484 946 -553 101 -22 201 -41 255 -48 79 -9 404 -9
480 1 498 61 968 317 1298 707 100 119 242 356 319 535 17 41 76 225 72 225
-3 0 0 8 5 18 5 9 12 34 15 56 4 21 8 41 10 45 2 3 7 29 10 56 4 28 9 64 11
80 14 92 16 123 16 255 0 133 -2 168 -17 286 -42 339 -205 709 -434 989 -305
373 -755 633 -1220 705 -41 6 -86 14 -100 16 -47 9 -345 11 -415 3z m420 -538
c471 -79 872 -374 1082 -796 88 -175 122 -292 147 -496 46 -384 -69 -777 -317
-1084 -155 -192 -341 -331 -589 -439 -32 -14 -157 -56 -183 -62 -197 -40 -236
-45 -370 -45 -422 0 -832 186 -1099 497 -94 109 -98 114 -149 196 -78 126
-164 331 -183 438 -3 14 -7 32 -9 40 -34 115 -39 406 -10 551 3 13 7 36 10 50
3 14 16 64 29 111 131 450 490 825 935 977 87 30 214 60 286 67 33 4 61 8 63
9 9 8 295 -4 357 -14z"/>
</g>
</svg>
