<svg id="Camada_1" data-name="Camada 1" xmlns="http://www.w3.org/2000/svg" viewBox="0 0 369 81"><defs><style>.cls-1{fill:#CBA415;}.cls-2{fill:#fff;}</style></defs><title>lembretify</title><path class="cls-1" d="M23.35,32.52A11.37,11.37,0,1,0,12,21.15,11.38,11.38,0,0,0,23.35,32.52Zm0-19.75A8.38,8.38,0,1,1,15,21.15,8.39,8.39,0,0,1,23.35,12.77Z"/><path class="cls-1" d="M57.25,53.72a47.74,47.74,0,0,1-2.11-15c0-1.14.09-2.31.16-3.45.09-1.72.19-3.51.15-5.3a19.3,19.3,0,0,0-2.12-9.08,13.22,13.22,0,0,0-6-5.77c.67-1.57,1.06-3.35-.2-5.12A4.42,4.42,0,0,0,44,8.2a5.16,5.16,0,0,0-3.9,1.1A5.13,5.13,0,0,0,38.6,14a9.5,9.5,0,0,0-3.65.72l1.34,2.68a11.35,11.35,0,0,1,4.1-.44l2,0-.49-1.89c-.47-1.83-.41-3,.18-3.5a2.16,2.16,0,0,1,1.6-.42,1.45,1.45,0,0,1,1,.55c.54.75.21,1.61-.66,3.39l-1,2.14,2,.29c2.32.33,4.55,2.64,5.73,4.78A16.41,16.41,0,0,1,52.46,30c0,1.67-.06,3.39-.15,5.07-.07,1.15-.13,2.35-.16,3.55a50.53,50.53,0,0,0,2.24,16c.09.26.16.52.23.78-4.33-4.49-10.42-7.53-18.17-9-7-1.36-14.11-1-20.41-.26l.36-.45a46,46,0,0,0,5.94-9.39L19.64,35a43.24,43.24,0,0,1-5.58,8.81c-1.05,1.29-2.36,2.9-2.19,5a6.4,6.4,0,0,0,2.26,3.94,31.94,31.94,0,0,0,20.18,8.86l.17-3a28.9,28.9,0,0,1-18.27-8,6.23,6.23,0,0,1-1.11-1.33c6.38-.79,13.67-1.3,20.78.07a41.42,41.42,0,0,1,5.79,1.54v5a6,6,0,1,0,3-.12V52.05a24.86,24.86,0,0,1,8.55,6.23,10.6,10.6,0,0,1-1.49,0l-.1,3h.72c1.41,0,3.51-.21,4.73-1.88C58.44,57.56,57.7,55.16,57.25,53.72ZM46.39,61.54a3,3,0,1,1-3-3A3,3,0,0,1,46.39,61.54Z"/><path class="cls-2" d="M80,12.84h6v48H80Z"/><path class="cls-2" d="M91.11,44.28c0-10.08,6.48-17.16,15.66-17.16s15,7.92,14.28,19.08H97.23c.6,5.88,4.14,9.84,8.94,9.84a8.68,8.68,0,0,0,8.22-6.12h6.18a14.13,14.13,0,0,1-13.86,11.52C97.59,61.44,91.11,54.36,91.11,44.28Zm23.7-3.48c-.66-4.86-4.26-8.28-8.7-8.28s-7.62,3.3-8.64,8.28Z"/><path class="cls-2" d="M126.21,27.84h6v5.4H134c1.08-3.6,3.78-6.12,7.38-6.12s6.6,2.34,8.15,6.12h1.87a8.17,8.17,0,0,1,8-6.12c5.88,0,10,5.34,10,13V60.84h-6V40.08c0-4.44-2.22-7.56-5.4-7.56-4.2,0-7.19,4.86-7.19,11.76V60.84h-6V40.08c0-4.44-2.22-7.56-5.4-7.56-4.2,0-7.2,4.86-7.2,11.76V60.84h-6Z"/><path class="cls-2" d="M183.51,55.32h-1.8v5.52h-6v-48h6v20.4h1.8a8.52,8.52,0,0,1,8.4-6.12c7.38,0,12.59,7.08,12.59,17.16s-5.21,17.16-12.35,17.16A8.87,8.87,0,0,1,183.51,55.32Zm6.6.72c4.92,0,8.4-4.86,8.4-11.76s-3.48-11.76-8.4-11.76-8.34,4.8-8.4,11.64S185.19,56,190.11,56Z"/><path class="cls-2" d="M209.61,27.84h6v5.4h1.8c1.2-3.9,3.72-6.12,8.58-6.12a20.21,20.21,0,0,1,3.47.3V33.9A11.62,11.62,0,0,0,224,32.52c-5.21,0-8.39,4.2-8.39,11.76V60.84h-6Z"/><path class="cls-2" d="M229.77,44.28c0-10.08,6.48-17.16,15.65-17.16s15,7.92,14.28,19.08H235.89c.6,5.88,4.14,9.84,8.94,9.84A8.68,8.68,0,0,0,253,49.92h6.18a14.13,14.13,0,0,1-13.85,11.52C236.25,61.44,229.77,54.36,229.77,44.28Zm23.69-3.48c-.66-4.86-4.25-8.28-8.7-8.28s-7.61,3.3-8.63,8.28Z"/><path class="cls-2" d="M266.18,48.24v-15h-4.32v-5.4h4.32v-8.4h6v8.4h12.66v5.4H272.18v15a7,7,0,0,0,7.32,7.2h5.7v5.4h-5.7C271.7,60.84,266.18,55.62,266.18,48.24Z"/><path class="cls-2" d="M290,12.84h6V20h-6Zm0,15h6v33h-6Z"/><path class="cls-2" d="M305.12,33.24H300.8v-5.4h4.32v-2.4c0-7.38,5.52-12.6,13.32-12.6h5.7v5.4h-5.7a7,7,0,0,0-7.32,7.2v2.4h12.66v5.4H311.12v27.6h-6Z"/><path class="cls-2" d="M338.06,60.84l-12.72-33h6.3L339,46.68a18.54,18.54,0,0,1,1,7.26h2.4a18.23,18.23,0,0,1,1-7.26l7.38-18.84h6.3l-12.72,33v12h-6.36Z"/></svg>